<svg width="32" height="32" viewBox="0 0 32 32" xmlns="http://www.w3.org/2000/svg">
  <!-- Background circle -->
  <circle cx="16" cy="16" r="16" fill="#16a34a"/>
  
  <!-- Farm house -->
  <rect x="12" y="18" width="8" height="6" fill="#ffffff" opacity="0.9"/>
  <polygon points="10,18 16,12 22,18" fill="#dc2626"/>
  <rect x="14" y="20" width="2" height="4" fill="#8b4513"/>
  
  <!-- Sun -->
  <circle cx="24" cy="8" r="2.5" fill="#fbbf24"/>
  <line x1="24" y1="2" x2="24" y2="4" stroke="#fbbf24" stroke-width="0.8"/>
  <line x1="30" y1="8" x2="28" y2="8" stroke="#fbbf24" stroke-width="0.8"/>
  <line x1="26.5" y1="3.5" x2="25.5" y2="4.5" stroke="#fbbf24" stroke-width="0.8"/>
  <line x1="26.5" y1="12.5" x2="25.5" y2="11.5" stroke="#fbbf24" stroke-width="0.8"/>
  
  <!-- Trees -->
  <rect x="6" y="20" width="1.5" height="4" fill="#8b4513"/>
  <circle cx="6.75" cy="18" r="2.5" fill="#22c55e"/>
  
  <rect x="24" y="20" width="1.5" height="4" fill="#8b4513"/>
  <circle cx="24.75" cy="18" r="2.5" fill="#22c55e"/>
  
  <!-- Ground -->
  <rect x="0" y="26" width="32" height="6" fill="#8b4513"/>
  
  <!-- Crops/Vegetables -->
  <rect x="8" y="24" width="0.5" height="2" fill="#22c55e"/>
  <rect x="9" y="24" width="0.5" height="2" fill="#22c55e"/>
  <rect x="10" y="24" width="0.5" height="2" fill="#22c55e"/>
  
  <rect x="22" y="24" width="0.5" height="2" fill="#22c55e"/>
  <rect x="23" y="24" width="0.5" height="2" fill="#22c55e"/>
  <rect x="24" y="24" width="0.5" height="2" fill="#22c55e"/>
</svg>
